<svg width="48" height="48" viewBox="0 0 48 48" fill="none" xmlns="http://www.w3.org/2000/svg">
<rect width="48" height="48" rx="24" fill="#353945"/>
<path fill-rule="evenodd" clip-rule="evenodd" d="M29.7421 20H18.2577C17.1041 20 16.1897 20.9734 16.2616 22.1248L16.7616 30.1248C16.8275 31.1788 17.7016 32 18.7577 32H29.2421C30.2982 32 31.1723 31.1788 31.2382 30.1248L31.7382 22.1248C31.8102 20.9734 30.8958 20 29.7421 20ZM18.2577 18C15.9504 18 14.1216 19.9467 14.2655 22.2495L14.7655 30.2495C14.8973 32.3577 16.6455 34 18.7577 34H29.2421C31.3544 34 33.1026 32.3577 33.2343 30.2495L33.7343 22.2495C33.8783 19.9467 32.0494 18 29.7421 18H18.2577Z" fill="#777E91"/>
<path fill-rule="evenodd" clip-rule="evenodd" d="M19 19C19 16.2386 21.2386 14 24 14C26.7614 14 29 16.2386 29 19V21C29 21.5523 28.5523 22 28 22C27.4477 22 27 21.5523 27 21V19C27 17.3431 25.6569 16 24 16C22.3431 16 21 17.3431 21 19V21C21 21.5523 20.5523 22 20 22C19.4477 22 19 21.5523 19 21V19Z" fill="#777E91"/>
</svg>
