<svg width="20" height="21" viewBox="0 0 20 21" fill="none" xmlns="http://www.w3.org/2000/svg">
<g clip-path="url(#clip0_2047_55622)">
<path d="M14.1667 0.059082C14.6269 0.059082 15 0.432178 15 0.892415V2.55908C15 3.01932 14.6269 3.39242 14.1667 3.39242C13.7064 3.39242 13.3333 3.01932 13.3333 2.55908V0.892415C13.3333 0.432178 13.7064 0.059082 14.1667 0.059082Z" fill="#777E91"/>
<path d="M14.1667 10.0591C14.6269 10.0591 15 10.4322 15 10.8924V15.8924C15 16.3527 14.6269 16.7257 14.1667 16.7257C13.7064 16.7257 13.3333 16.3527 13.3333 15.8924V10.8924C13.3333 10.4322 13.7064 10.0591 14.1667 10.0591Z" fill="#777E91"/>
<path d="M5.83333 3.39242C6.29357 3.39242 6.66667 3.76551 6.66667 4.22575V10.8924C6.66667 11.3527 6.29357 11.7257 5.83333 11.7257C5.3731 11.7257 5 11.3527 5 10.8924V4.22575C5 3.76551 5.3731 3.39242 5.83333 3.39242Z" fill="#777E91"/>
<path d="M5.83333 15.0591C6.29357 15.0591 6.66667 15.4322 6.66667 15.8924V19.2257C6.66667 19.686 6.29357 20.0591 5.83333 20.0591C5.3731 20.0591 5 19.686 5 19.2257V15.8924C5 15.4322 5.3731 15.0591 5.83333 15.0591Z" fill="#777E91"/>
<path fill-rule="evenodd" clip-rule="evenodd" d="M11.6668 4.22583C11.6668 2.84512 12.7861 1.72583 14.1668 1.72583C15.5475 1.72583 16.6668 2.84512 16.6668 4.22583V9.22583C16.6668 10.6065 15.5475 11.7258 14.1668 11.7258C12.7861 11.7258 11.6668 10.6065 11.6668 9.22583V4.22583ZM15.0002 4.22583V9.22583C15.0002 9.68607 14.6271 10.0592 14.1668 10.0592C13.7066 10.0592 13.3335 9.68607 13.3335 9.22583V4.22583C13.3335 3.76559 13.7066 3.3925 14.1668 3.3925C14.6271 3.3925 15.0002 3.76559 15.0002 4.22583Z" fill="#777E91"/>
<path fill-rule="evenodd" clip-rule="evenodd" d="M3.3335 12.5592C3.3335 11.1785 4.45278 10.0592 5.8335 10.0592C7.21421 10.0592 8.3335 11.1785 8.3335 12.5592V14.2258C8.3335 15.6065 7.21421 16.7258 5.8335 16.7258C4.45278 16.7258 3.3335 15.6065 3.3335 14.2258V12.5592ZM6.66683 12.5592V14.2258C6.66683 14.6861 6.29373 15.0592 5.8335 15.0592C5.37326 15.0592 5.00016 14.6861 5.00016 14.2258V12.5592C5.00016 12.0989 5.37326 11.7258 5.8335 11.7258C6.29373 11.7258 6.66683 12.0989 6.66683 12.5592Z" fill="#777E91"/>
</g>
<defs>
<clipPath id="clip0_2047_55622">
<rect width="20" height="20" fill="white" transform="translate(0 0.059082)"/>
</clipPath>
</defs>
</svg>
