<svg width="18" height="18" viewBox="0 0 18 18" fill="none" xmlns="http://www.w3.org/2000/svg">
<path d="M17.5965 14.2254L14.8166 11.4453C14.2629 10.8938 13.346 10.9106 12.7731 11.4838L11.3726 12.884C11.2841 12.8352 11.1925 12.7843 11.0962 12.7302C10.2118 12.2402 9.00139 11.5685 7.72765 10.2939C6.45014 9.01652 5.77788 7.80422 5.28635 6.91926C5.23448 6.82551 5.18478 6.73511 5.13571 6.64927L6.07564 5.71074L6.53774 5.24806C7.1116 4.67405 7.12742 3.75739 6.57503 3.20432L3.79521 0.423888C3.24282 -0.128404 2.32549 -0.111649 1.75163 0.462362L0.968183 1.25031L0.989592 1.27156C0.726892 1.60676 0.507371 1.99337 0.344011 2.41028C0.193423 2.80712 0.0996683 3.18581 0.0567985 3.56528C-0.310258 6.60826 1.0803 9.38932 4.85408 13.1632C10.0706 18.3793 14.2744 17.9853 14.4558 17.966C14.8508 17.9188 15.2293 17.8244 15.614 17.675C16.0273 17.5136 16.4136 17.2944 16.7486 17.0322L16.7657 17.0475L17.5594 16.2703C18.1321 15.6964 18.1486 14.7794 17.5965 14.2254Z" fill="black"/>
</svg>
