<svg width="24" height="25" viewBox="0 0 24 25" fill="none" xmlns="http://www.w3.org/2000/svg">
<path fill-rule="evenodd" clip-rule="evenodd" d="M12 20.0591C16.4183 20.0591 20 16.4774 20 12.0591C20 7.6408 16.4183 4.05908 12 4.05908C7.58172 4.05908 4 7.6408 4 12.0591C4 16.4774 7.58172 20.0591 12 20.0591ZM12 22.0591C17.5228 22.0591 22 17.5819 22 12.0591C22 6.53623 17.5228 2.05908 12 2.05908C6.47715 2.05908 2 6.53623 2 12.0591C2 17.5819 6.47715 22.0591 12 22.0591Z" fill="#777E91"/>
<path fill-rule="evenodd" clip-rule="evenodd" d="M8.29289 8.35198C8.68342 7.96145 9.31658 7.96145 9.70711 8.35198L12 10.6449L14.2929 8.35198C14.6834 7.96145 15.3166 7.96145 15.7071 8.35198C16.0976 8.7425 16.0976 9.37566 15.7071 9.76619L13.4142 12.0591L15.7071 14.352C16.0976 14.7425 16.0976 15.3757 15.7071 15.7662C15.3166 16.1567 14.6834 16.1567 14.2929 15.7662L12 13.4733L9.70711 15.7662C9.31658 16.1567 8.68342 16.1567 8.29289 15.7662C7.90237 15.3757 7.90237 14.7425 8.29289 14.352L10.5858 12.0591L8.29289 9.76619C7.90237 9.37566 7.90237 8.7425 8.29289 8.35198Z" fill="#777E91"/>
</svg>
