<svg width="20" height="20" viewBox="0 0 20 20" fill="none" xmlns="http://www.w3.org/2000/svg">
<path fill-rule="evenodd" clip-rule="evenodd" d="M9.99984 3.33464C8.37298 3.33464 6.87331 3.46881 5.66959 3.62778C4.58627 3.77086 3.76939 4.58774 3.62632 5.67106C3.46734 6.87477 3.33317 8.37444 3.33317 10.0013C3.33317 11.6282 3.46734 13.1278 3.62632 14.3315C3.76939 15.4149 4.58627 16.2317 5.66959 16.3748C6.87331 16.5338 8.37298 16.668 9.99984 16.668C11.6267 16.668 13.1264 16.5338 14.3301 16.3748C15.4134 16.2317 16.2303 15.4149 16.3734 14.3315C16.5323 13.1278 16.6665 11.6282 16.6665 10.0013C16.6665 8.37444 16.5323 6.87477 16.3734 5.67106C16.2303 4.58774 15.4134 3.77086 14.3301 3.62778C13.1264 3.46881 11.6267 3.33464 9.99984 3.33464ZM5.45137 1.97546C3.62071 2.21724 2.21577 3.62217 1.974 5.45283C1.80778 6.71137 1.6665 8.2857 1.6665 10.0013C1.6665 11.7169 1.80778 13.2912 1.974 14.5498C2.21577 16.3804 3.62071 17.7854 5.45137 18.0271C6.70991 18.1934 8.28423 18.3346 9.99984 18.3346C11.7154 18.3346 13.2898 18.1934 14.5483 18.0271C16.379 17.7854 17.7839 16.3804 18.0257 14.5498C18.1919 13.2912 18.3332 11.7169 18.3332 10.0013C18.3332 8.2857 18.1919 6.71137 18.0257 5.45284C17.7839 3.62217 16.379 2.21724 14.5483 1.97546C13.2898 1.80925 11.7154 1.66797 9.99984 1.66797C8.28423 1.66797 6.70991 1.80925 5.45137 1.97546Z" fill="#777E91"/>
<path d="M7.50002 9.16732C8.4205 9.16732 9.16669 8.42113 9.16669 7.50065C9.16669 6.58018 8.4205 5.83398 7.50002 5.83398C6.57955 5.83398 5.83335 6.58018 5.83335 7.50065C5.83335 8.42113 6.57955 9.16732 7.50002 9.16732Z" fill="#777E91"/>
<path d="M15.1011 10.5901L16.5964 12.0853C16.5448 12.8655 16.4695 13.5894 16.3864 14.2324L13.9226 11.7686C13.5972 11.4431 13.0695 11.4431 12.7441 11.7686L10.9345 13.5782C9.95814 14.5545 8.37523 14.5545 7.39892 13.5782L7.25594 13.4352C6.9305 13.1098 6.40287 13.1098 6.07743 13.4352L4.06987 15.4428C3.83731 15.1275 3.68171 14.749 3.62648 14.3309C3.59637 14.1029 3.56714 13.8642 3.53955 13.6161L4.89892 12.2567C5.87523 11.2804 7.45814 11.2804 8.43445 12.2567L8.57743 12.3997C8.90287 12.7251 9.4305 12.7251 9.75594 12.3997L11.5656 10.5901C12.5419 9.61375 14.1248 9.61375 15.1011 10.5901Z" fill="#777E91"/>
</svg>
