<svg width="16" height="16" viewBox="0 0 16 16" fill="none" xmlns="http://www.w3.org/2000/svg">
<path d="M11.9896 9.67163C12.0046 9.92113 12.2651 10.0894 12.4769 9.95659C13.7923 9.1313 14.6668 7.66811 14.6668 6.00065C14.6668 3.42332 12.5775 1.33398 10.0002 1.33398C8.3327 1.33398 6.8695 2.20852 6.04421 3.52394C5.91137 3.73568 6.07967 3.99619 6.32918 4.01119C9.31307 4.19058 11.8102 6.69031 11.9896 9.67163Z" fill="#F2994A"/>
<path d="M10.6668 10.0007C10.6668 12.578 8.57749 14.6673 6.00016 14.6673C3.42283 14.6673 1.3335 12.578 1.3335 10.0007C1.3335 7.42332 3.42283 5.33398 6.00016 5.33398C8.57749 5.33398 10.6668 7.42332 10.6668 10.0007Z" fill="#F2994A"/>
</svg>
