<svg width="16" height="17" viewBox="0 0 16 17" fill="none" xmlns="http://www.w3.org/2000/svg">
<path fill-rule="evenodd" clip-rule="evenodd" d="M3.52876 3.58784C3.78911 3.32749 4.21122 3.32749 4.47157 3.58784L8.00016 7.11644L11.5288 3.58784C11.7891 3.32749 12.2112 3.32749 12.4716 3.58784C12.7319 3.84819 12.7319 4.2703 12.4716 4.53065L8.94297 8.05924L12.4716 11.5878C12.7319 11.8482 12.7319 12.2703 12.4716 12.5306C12.2112 12.791 11.7891 12.791 11.5288 12.5306L8.00016 9.00205L4.47157 12.5306C4.21122 12.791 3.78911 12.791 3.52876 12.5306C3.26841 12.2703 3.26841 11.8482 3.52876 11.5878L7.05735 8.05924L3.52876 4.53065C3.26841 4.2703 3.26841 3.84819 3.52876 3.58784Z" fill="#FCFCFD"/>
</svg>
