<svg width="16" height="4" viewBox="0 0 16 4" fill="none" xmlns="http://www.w3.org/2000/svg">
<path d="M2.16667 0.392334C1.25 0.392334 0.5 1.14233 0.5 2.059C0.5 2.97567 1.25 3.72567 2.16667 3.72567C3.08333 3.72567 3.83333 2.97567 3.83333 2.059C3.83333 1.14233 3.08333 0.392334 2.16667 0.392334ZM13.8333 0.392334C12.9167 0.392334 12.1667 1.14233 12.1667 2.059C12.1667 2.97567 12.9167 3.72567 13.8333 3.72567C14.75 3.72567 15.5 2.97567 15.5 2.059C15.5 1.14233 14.75 0.392334 13.8333 0.392334ZM8 0.392334C7.08333 0.392334 6.33333 1.14233 6.33333 2.059C6.33333 2.97567 7.08333 3.72567 8 3.72567C8.91667 3.72567 9.66667 2.97567 9.66667 2.059C9.66667 1.14233 8.91667 0.392334 8 0.392334Z" fill="#777E91"/>
</svg>
