<svg width="16" height="17" viewBox="0 0 16 17" fill="none" xmlns="http://www.w3.org/2000/svg">
<g clip-path="url(#clip0_2047_14656)">
<path d="M2 14.7257C2 14.3576 2.29848 14.0591 2.66667 14.0591H13.3333C13.7015 14.0591 14 14.3576 14 14.7257V14.7257C14 15.0939 13.7015 15.3924 13.3333 15.3924H2.66667C2.29848 15.3924 2 15.0939 2 14.7257V14.7257Z" fill="#FCFCFD"/>
<path fill-rule="evenodd" clip-rule="evenodd" d="M11.1381 2.13992C10.8777 1.87957 10.4556 1.87957 10.1953 2.13992L9.6095 2.72569L12 5.11621L12.5858 4.53045C12.8461 4.2701 12.8461 3.84799 12.5858 3.58764L11.1381 2.13992ZM4.6095 7.72569L8.66669 3.6685L11.0572 6.05902L7.00002 10.1162L4.6095 7.72569ZM3.66669 8.6685L3.33333 9.00185V11.3924H5.72386L6.05721 11.059L3.66669 8.6685ZM9.25245 1.19711C10.0335 0.416066 11.2998 0.416066 12.0809 1.19711L13.5286 2.64483C14.3096 3.42588 14.3096 4.69221 13.5286 5.47326L6.66667 12.3352C6.41662 12.5852 6.07748 12.7257 5.72386 12.7257H3.33333C2.59695 12.7257 2 12.1288 2 11.3924V9.00185C2 8.64823 2.14048 8.30909 2.39052 8.05904L9.25245 1.19711Z" fill="#FCFCFD"/>
</g>
<defs>
<clipPath id="clip0_2047_14656">
<rect width="16" height="16" fill="white" transform="translate(0 0.059082)"/>
</clipPath>
</defs>
</svg>
