<svg width="20" height="21" viewBox="0 0 20 21" fill="none" xmlns="http://www.w3.org/2000/svg">
<path fill-rule="evenodd" clip-rule="evenodd" d="M9.99984 16.7256C13.6818 16.7256 16.6665 13.7408 16.6665 10.0589C16.6665 6.37702 13.6818 3.39225 9.99984 3.39225C6.31794 3.39225 3.33317 6.37702 3.33317 10.0589C3.33317 13.7408 6.31794 16.7256 9.99984 16.7256ZM9.99984 18.3923C14.6022 18.3923 18.3332 14.6613 18.3332 10.0589C18.3332 5.45654 14.6022 1.72559 9.99984 1.72559C5.39746 1.72559 1.6665 5.45654 1.6665 10.0589C1.6665 14.6613 5.39746 18.3923 9.99984 18.3923Z" fill="#777E91"/>
<path d="M9.99984 8.39258C9.99984 7.93234 10.3729 7.55924 10.8332 7.55924H11.6665C12.1268 7.55924 12.4998 7.18615 12.4998 6.72591C12.4998 6.26568 12.1268 5.89258 11.6665 5.89258H10.8332C9.45242 5.89258 8.33317 7.01187 8.33317 8.39258V10.0592H7.49984C7.0396 10.0592 6.6665 10.4323 6.6665 10.8926C6.6665 11.3528 7.0396 11.7259 7.49984 11.7259H8.33317V16.7259C8.33317 17.1862 8.70625 17.5592 9.1665 17.5592C9.62675 17.5592 9.99984 17.1862 9.99984 16.7259V11.7259H11.6665C12.1268 11.7259 12.4998 11.3528 12.4998 10.8926C12.4998 10.4323 12.1268 10.0592 11.6665 10.0592H9.99984V8.39258Z" fill="#777E91"/>
</svg>
