<svg width="16" height="16" viewBox="0 0 16 16" fill="none" xmlns="http://www.w3.org/2000/svg">
<path d="M14.5039 5.92659L7.99991 2.21059L1.49591 5.92659L0.503906 4.19059L7.50391 0.190594C7.81191 0.0145938 8.18891 0.0145938 8.49591 0.190594L15.4959 4.19059L14.5039 5.92659Z" fill="#FCFCFD"/>
<path d="M4 13.0586V15.0586H12V13.0586C12 13.0586 11 11.0586 8 11.0586C5 11.0586 4 13.0586 4 13.0586Z" fill="#FCFCFD"/>
<path d="M8 10.0586C9.10457 10.0586 10 9.16316 10 8.05859C10 6.95402 9.10457 6.05859 8 6.05859C6.89543 6.05859 6 6.95402 6 8.05859C6 9.16316 6.89543 10.0586 8 10.0586Z" fill="#FCFCFD"/>
</svg>
