<svg width="20" height="21" viewBox="0 0 20 21" fill="none" xmlns="http://www.w3.org/2000/svg">
<path fill-rule="evenodd" clip-rule="evenodd" d="M13.3332 3.39225H6.6665C4.82555 3.39225 3.33317 4.88464 3.33317 6.72559V13.3923C3.33317 15.2332 4.82555 16.7256 6.6665 16.7256H13.3332C15.1741 16.7256 16.6665 15.2332 16.6665 13.3923V6.72559C16.6665 4.88464 15.1741 3.39225 13.3332 3.39225ZM6.6665 1.72559C3.90508 1.72559 1.6665 3.96416 1.6665 6.72559V13.3923C1.6665 16.1537 3.90508 18.3923 6.6665 18.3923H13.3332C16.0946 18.3923 18.3332 16.1537 18.3332 13.3923V6.72559C18.3332 3.96416 16.0946 1.72559 13.3332 1.72559H6.6665Z" fill="#777E91"/>
<path d="M14.1668 6.72575C14.6271 6.72575 15.0002 6.35265 15.0002 5.89242C15.0002 5.43218 14.6271 5.05908 14.1668 5.05908C13.7066 5.05908 13.3335 5.43218 13.3335 5.89242C13.3335 6.35265 13.7066 6.72575 14.1668 6.72575Z" fill="#777E91"/>
<path fill-rule="evenodd" clip-rule="evenodd" d="M14.1668 10.0592C14.1668 12.3604 12.3013 14.2259 10.0002 14.2259C7.69898 14.2259 5.8335 12.3604 5.8335 10.0592C5.8335 7.75806 7.69898 5.89258 10.0002 5.89258C12.3013 5.89258 14.1668 7.75806 14.1668 10.0592ZM12.5002 10.0592C12.5002 11.44 11.3809 12.5592 10.0002 12.5592C8.61941 12.5592 7.50016 11.44 7.50016 10.0592C7.50016 8.67849 8.61941 7.55924 10.0002 7.55924C11.3809 7.55924 12.5002 8.67849 12.5002 10.0592Z" fill="#777E91"/>
</svg>
