<svg width="32" height="32" viewBox="0 0 32 32" fill="none" xmlns="http://www.w3.org/2000/svg">
<path opacity="0.1" fill-rule="evenodd" clip-rule="evenodd" d="M0 16C0 7.16344 7.16344 0 16 0C24.8366 0 32 7.16344 32 16C32 24.8366 24.8366 32 16 32C7.16344 32 0 24.8366 0 16Z" fill="white"/>
<path fill-rule="evenodd" clip-rule="evenodd" d="M16.0007 7.4668C13.6832 7.4668 13.3923 7.47693 12.4821 7.51835C11.5736 7.55995 10.9535 7.70378 10.4109 7.9148C9.84969 8.13276 9.37359 8.42432 8.89928 8.89881C8.42461 9.37313 8.13305 9.84922 7.91438 10.4103C7.70282 10.9531 7.55882 11.5733 7.51793 12.4814C7.47722 13.3917 7.46655 13.6827 7.46655 16.0002C7.46655 18.3178 7.47686 18.6077 7.51811 19.5179C7.55989 20.4264 7.70371 21.0465 7.91456 21.5891C8.13269 22.1503 8.42425 22.6264 8.89875 23.1007C9.37288 23.5754 9.84898 23.8677 10.4099 24.0856C10.9528 24.2967 11.5731 24.4405 12.4814 24.4821C13.3916 24.5235 13.6823 24.5336 15.9996 24.5336C18.3173 24.5336 18.6073 24.5235 19.5175 24.4821C20.426 24.4405 21.0468 24.2967 21.5897 24.0856C22.1508 23.8677 22.6262 23.5754 23.1003 23.1007C23.575 22.6264 23.8665 22.1503 24.0852 21.5893C24.295 21.0465 24.439 20.4262 24.4817 19.5181C24.5226 18.6079 24.5332 18.3178 24.5332 16.0002C24.5332 13.6827 24.5226 13.3918 24.4817 12.4816C24.439 11.5732 24.295 10.9531 24.0852 10.4105C23.8665 9.84922 23.575 9.37313 23.1003 8.89881C22.6256 8.42414 22.151 8.13258 21.5892 7.9148C21.0452 7.70378 20.4247 7.55995 19.5163 7.51835C18.606 7.47693 18.3163 7.4668 15.998 7.4668H16.0007ZM15.2351 9.00457C15.4623 9.00421 15.7158 9.00457 16.0006 9.00457C18.2791 9.00457 18.5491 9.01274 19.4489 9.05363C20.2809 9.09168 20.7324 9.2307 21.0332 9.3475C21.4315 9.50217 21.7154 9.68706 22.0139 9.98573C22.3125 10.2844 22.4974 10.5688 22.6525 10.9671C22.7693 11.2675 22.9085 11.7191 22.9463 12.5511C22.9872 13.4507 22.9961 13.7209 22.9961 15.9982C22.9961 18.2756 22.9872 18.5458 22.9463 19.4454C22.9083 20.2774 22.7693 20.729 22.6525 21.0294C22.4978 21.4276 22.3125 21.7112 22.0139 22.0097C21.7152 22.3084 21.4316 22.4932 21.0332 22.6479C20.7328 22.7652 20.2809 22.9039 19.4489 22.942C18.5493 22.9828 18.2791 22.9917 16.0006 22.9917C13.722 22.9917 13.452 22.9828 12.5524 22.942C11.7204 22.9036 11.2689 22.7645 10.9679 22.6477C10.5697 22.4931 10.2852 22.3082 9.98654 22.0095C9.68787 21.7108 9.50298 21.4271 9.34796 21.0287C9.23116 20.7282 9.09196 20.2767 9.05409 19.4447C9.0132 18.5451 9.00502 18.2749 9.00502 15.9961C9.00502 13.7173 9.0132 13.4485 9.05409 12.549C9.09213 11.717 9.23116 11.2654 9.34796 10.9646C9.50263 10.5664 9.68787 10.2819 9.98654 9.98324C10.2852 9.68457 10.5697 9.49968 10.9679 9.34466C11.2687 9.22732 11.7204 9.08866 12.5524 9.05043C13.3396 9.01488 13.6447 9.00421 15.2351 9.00243V9.00457ZM20.5557 10.4215C19.9904 10.4215 19.5317 10.8796 19.5317 11.4451C19.5317 12.0105 19.9904 12.4691 20.5557 12.4691C21.1211 12.4691 21.5797 12.0105 21.5797 11.4451C21.5797 10.8798 21.1211 10.4215 20.5557 10.4215ZM16.0007 11.6179C13.5806 11.6179 11.6184 13.5801 11.6184 16.0002C11.6184 18.4203 13.5806 20.3816 16.0007 20.3816C18.4208 20.3816 20.3823 18.4203 20.3823 16.0002C20.3823 13.5801 18.4208 11.6179 16.0007 11.6179ZM16.0007 13.1557C17.5715 13.1557 18.8451 14.4292 18.8451 16.0002C18.8451 17.5711 17.5715 18.8447 16.0007 18.8447C14.4296 18.8447 13.1562 17.5711 13.1562 16.0002C13.1562 14.4292 14.4296 13.1557 16.0007 13.1557Z" fill="white"/>
</svg>
