<svg width="14" height="18" viewBox="0 0 14 18" fill="none" xmlns="http://www.w3.org/2000/svg">
<path d="M7.00013 0C10.5947 0 13.519 2.92437 13.519 6.51888C13.519 10.9798 7.68525 17.5287 7.43687 17.8053C7.20358 18.0651 6.79626 18.0647 6.56338 17.8053C6.315 17.5287 0.481215 10.9798 0.481215 6.51888C0.481285 2.92437 3.40562 0 7.00013 0ZM7.00013 9.79871C8.80864 9.79871 10.2799 8.32739 10.2799 6.51888C10.2799 4.71037 8.8086 3.23909 7.00013 3.23909C5.19166 3.23909 3.72037 4.71041 3.72037 6.51892C3.72037 8.32743 5.19166 9.79871 7.00013 9.79871Z" fill="black"/>
</svg>
