<svg width="20" height="20" viewBox="0 0 20 20" fill="none" xmlns="http://www.w3.org/2000/svg">
<path fill-rule="evenodd" clip-rule="evenodd" d="M9.19107 12.5012C9.65098 12.4839 10.0379 12.8426 10.0552 13.3025C10.0944 14.3394 10.1494 15.0961 10.2034 15.6387C10.2566 16.173 10.5792 16.4945 11.0289 16.5495C11.5591 16.6143 12.307 16.6673 13.3334 16.6673C14.3598 16.6673 15.1078 16.6143 15.638 16.5495C16.0874 16.4945 16.4101 16.1729 16.4634 15.6384C16.5637 14.6313 16.6667 12.8913 16.6667 10.0007C16.6667 7.10997 16.5637 5.36999 16.4634 4.36288C16.4101 3.82842 16.0874 3.50679 15.638 3.45185C15.1078 3.38703 14.3598 3.33398 13.3334 3.33398C12.307 3.33398 11.5591 3.38703 11.0289 3.45184C10.5792 3.50681 10.2566 3.8283 10.2034 4.36263C10.1494 4.90519 10.0944 5.66193 10.0552 6.69875C10.0379 7.15866 9.65098 7.51742 9.19107 7.50006C8.73116 7.4827 8.3724 7.09579 8.38976 6.63588C8.42994 5.57169 8.4869 4.78017 8.54495 4.19741C8.667 2.97227 9.52117 1.95707 10.8266 1.79749C11.4343 1.72321 12.2507 1.66732 13.3334 1.66732C14.4161 1.66732 15.2325 1.72321 15.8402 1.7975C17.1458 1.9571 17.9998 2.97278 18.1218 4.19767C18.2293 5.27622 18.3334 7.07438 18.3334 10.0007C18.3334 12.9269 18.2293 14.7251 18.1218 15.8036C17.9998 17.0285 17.1458 18.0442 15.8402 18.2038C15.2325 18.2781 14.4161 18.334 13.3334 18.334C12.2507 18.334 11.4343 18.2781 10.8266 18.2038C9.52117 18.0442 8.667 17.029 8.54495 15.8039C8.4869 15.2211 8.42994 14.4296 8.38976 13.3654C8.3724 12.9055 8.73116 12.5186 9.19107 12.5012Z" fill="#777E91"/>
<path fill-rule="evenodd" clip-rule="evenodd" d="M6.00576 12.3284C6.3312 12.6538 6.3312 13.1815 6.00576 13.5069C5.68032 13.8323 5.15269 13.8323 4.82725 13.5069L1.91058 10.5902C1.58514 10.2648 1.58514 9.73716 1.91058 9.41172L4.82725 6.49505C5.15269 6.16962 5.68032 6.16962 6.00576 6.49505C6.3312 6.82049 6.3312 7.34813 6.00576 7.67357L4.51168 9.16764H12.4998C12.9601 9.16764 13.3332 9.54074 13.3332 10.001C13.3332 10.4612 12.9601 10.8343 12.4998 10.8343L4.51168 10.8343L6.00576 12.3284Z" fill="#777E91"/>
</svg>
