<svg width="18" height="20" viewBox="0 0 18 20" fill="none" xmlns="http://www.w3.org/2000/svg">
<path d="M18 15.0526C18 15.5406 17.6043 15.9363 17.1163 15.9363H0.88372C0.395655 15.9363 0 15.5406 0 15.0526V15.0526C0 14.5645 0.395656 14.1688 0.883721 14.1688H0.9V8.01018C0.9 3.60218 4.527 0.0292969 9 0.0292969C13.473 0.0292969 17.1 3.60218 17.1 8.01018V14.1688H17.1163C17.6043 14.1688 18 14.5645 18 15.0526V15.0526ZM2.7 14.1688H15.3V8.01018C15.3 4.57869 12.4794 1.79674 9 1.79674C5.5206 1.79674 2.7 4.57869 2.7 8.01018V14.1688ZM6.97604 17.7851C6.73121 17.2901 7.19772 16.82 7.75 16.82H10.25C10.8023 16.82 11.2688 17.2901 11.024 17.7851C10.9155 18.0044 10.7699 18.2066 10.591 18.3822C10.169 18.7965 9.59674 19.0293 9 19.0293C8.40326 19.0293 7.83097 18.7965 7.40901 18.3822C7.23014 18.2066 7.08449 18.0044 6.97604 17.7851Z" fill="#777E91"/>
</svg>
