<svg width="16" height="17" viewBox="0 0 16 17" fill="none" xmlns="http://www.w3.org/2000/svg">
<path fill-rule="evenodd" clip-rule="evenodd" d="M12.6668 8.94108C12.6668 11.5184 10.5775 13.6077 8.00016 13.6077C5.42283 13.6077 3.3335 11.5184 3.3335 8.94108C3.3335 6.36375 5.42283 4.27441 8.00016 4.27441C10.5775 4.27441 12.6668 6.36375 12.6668 8.94108ZM14.6668 8.94108C14.6668 12.623 11.6821 15.6077 8.00016 15.6077C4.31826 15.6077 1.3335 12.623 1.3335 8.94108C1.3335 5.25918 4.31826 2.27441 8.00016 2.27441C11.6821 2.27441 14.6668 5.25918 14.6668 8.94108ZM8.00016 4.60775C8.55245 4.60775 9.00016 5.05546 9.00016 5.60775V7.94108H11.3335C11.8858 7.94108 12.3335 8.3888 12.3335 8.94108C12.3335 9.49337 11.8858 9.94108 11.3335 9.94108H9.00016V12.2744C9.00016 12.8267 8.55245 13.2744 8.00016 13.2744C7.44788 13.2744 7.00016 12.8267 7.00016 12.2744V9.94108H4.66683C4.11454 9.94108 3.66683 9.49337 3.66683 8.94108C3.66683 8.3888 4.11454 7.94108 4.66683 7.94108H7.00016V5.60775C7.00016 5.05546 7.44788 4.60775 8.00016 4.60775Z" fill="#777E91"/>
</svg>
