<svg width="14" height="10" viewBox="0 0 14 10" fill="none" xmlns="http://www.w3.org/2000/svg">
<path fill-rule="evenodd" clip-rule="evenodd" d="M9.09094 0.323801C9.49676 -0.0508051 10.1294 -0.0255025 10.504 0.380316L13.7348 3.88028C14.0884 4.26334 14.0884 4.85377 13.7348 5.23684L10.504 8.73688C10.1294 9.1427 9.49677 9.16801 9.09095 8.79341C8.68513 8.41881 8.65982 7.78615 9.03442 7.38032L10.716 5.55856L0.999999 5.55856C0.447714 5.55856 -7.64154e-07 5.11085 -7.86799e-07 4.55856C-8.09444e-07 4.00628 0.447714 3.55856 0.999999 3.55856L10.716 3.55856L9.03443 1.73688C8.65982 1.33107 8.68513 0.698407 9.09094 0.323801Z" fill="#777E91"/>
</svg>
