<svg width="18" height="18" viewBox="0 0 18 18" fill="none" xmlns="http://www.w3.org/2000/svg">
<path fill-rule="evenodd" clip-rule="evenodd" d="M11.4215 12.6295C10.2925 13.5071 8.87401 14.0296 7.33342 14.0296C3.65152 14.0296 0.666748 11.0449 0.666748 7.36296C0.666748 3.68106 3.65152 0.696289 7.33342 0.696289C11.0153 0.696289 14.0001 3.68106 14.0001 7.36296C14.0001 8.90355 13.4775 10.3221 12.6 11.451L17.0893 15.9404C17.4148 16.2658 17.4148 16.7934 17.0893 17.1189C16.7639 17.4443 16.2363 17.4443 15.9108 17.1189L11.4215 12.6295ZM12.3334 7.36296C12.3334 10.1244 10.0948 12.363 7.33342 12.363C4.57199 12.363 2.33341 10.1244 2.33341 7.36296C2.33341 4.60153 4.57199 2.36296 7.33342 2.36296C10.0948 2.36296 12.3334 4.60153 12.3334 7.36296Z" fill="#777E91"/>
</svg>
