<svg width="20" height="20" viewBox="0 0 20 20" fill="none" xmlns="http://www.w3.org/2000/svg">
<g clip-path="url(#clip0_1717_79812)">
<path fill-rule="evenodd" clip-rule="evenodd" d="M8.33317 15.001V17.501C8.33317 17.9612 8.70627 18.3343 9.1665 18.3343H10.8332C11.2934 18.3343 11.6665 17.9612 11.6665 17.501V15.001H13.3332V17.501C13.3332 18.8817 12.2139 20.001 10.8332 20.001H9.1665C7.78579 20.001 6.6665 18.8817 6.6665 17.501V15.001H8.33317Z" fill="#777E91"/>
<path fill-rule="evenodd" clip-rule="evenodd" d="M12.5002 11.0721L13.1244 10.5717C14.2709 9.65265 15.0002 8.24588 15.0002 6.66764C15.0002 3.90622 12.7616 1.66764 10.0002 1.66764C7.23874 1.66764 5.00016 3.90622 5.00016 6.66764C5.00016 8.24588 5.72947 9.65265 6.87595 10.5717L7.50016 11.0721V13.3343C7.50016 13.7945 7.87326 14.1676 8.3335 14.1676H11.6668C12.1271 14.1676 12.5002 13.7945 12.5002 13.3343V11.0721ZM14.1668 11.8721V13.3343C14.1668 14.715 13.0475 15.8343 11.6668 15.8343H8.3335C6.95278 15.8343 5.8335 14.715 5.8335 13.3343V11.8721C4.30939 10.6504 3.3335 8.77296 3.3335 6.66764C3.3335 2.98575 6.31826 0.000976562 10.0002 0.000976562C13.6821 0.000976562 16.6668 2.98575 16.6668 6.66764C16.6668 8.77296 15.6909 10.6504 14.1668 11.8721Z" fill="#777E91"/>
<path d="M8.92259 6.91205C8.59715 6.58661 8.06951 6.58661 7.74408 6.91205C7.41864 7.23748 7.41864 7.76512 7.74408 8.09056L9.16667 9.51315V14.168H10.8333V9.51315L12.2559 8.09056C12.5814 7.76512 12.5814 7.23748 12.2559 6.91205C11.9305 6.58661 11.4028 6.58661 11.0774 6.91205L10 7.98946L8.92259 6.91205Z" fill="#777E91"/>
</g>
<defs>
<clipPath id="clip0_1717_79812">
<rect width="20" height="20" fill="white" transform="translate(0 0.000976562)"/>
</clipPath>
</defs>
</svg>
