<svg width="48" height="48" viewBox="0 0 48 48" fill="none" xmlns="http://www.w3.org/2000/svg">
<rect width="48" height="48" rx="24" fill="#353945"/>
<path fill-rule="evenodd" clip-rule="evenodd" d="M14.0228 30.3979L14.7474 27.1369C14.9124 26.3943 15.2858 25.7142 15.8237 25.1762L25.6717 15.3283C27.2338 13.7662 29.7664 13.7662 31.3285 15.3283L32.6717 16.6715C34.2338 18.2336 34.2338 20.7662 32.6717 22.3283L22.8237 32.1762C22.2858 32.7142 21.6056 33.0875 20.863 33.2526L17.6021 33.9772C15.4586 34.4535 13.5464 32.5414 14.0228 30.3979ZM16.6998 27.5708L15.9751 30.8317C15.8164 31.5462 16.4538 32.1836 17.1683 32.0248L20.4292 31.3002C20.7863 31.2208 21.1145 31.0451 21.3783 30.7925L17.2074 26.6216C16.9548 26.8855 16.7791 27.2137 16.6998 27.5708ZM18.6213 25.2071L22.7929 29.3787L28.3787 23.7929L24.2071 19.6213L18.6213 25.2071ZM31.2575 20.9141L29.7929 22.3787L25.6213 18.2071L27.0859 16.7425C27.8669 15.9615 29.1333 15.9615 29.9143 16.7425L31.2575 18.0857C32.0385 18.8667 32.0385 20.133 31.2575 20.9141Z" fill="#777E91"/>
</svg>
