<svg width="32" height="32" viewBox="0 0 32 32" fill="none" xmlns="http://www.w3.org/2000/svg">
<path opacity="0.1" fill-rule="evenodd" clip-rule="evenodd" d="M0 16C0 7.16344 7.16344 0 16 0C24.8366 0 32 7.16344 32 16C32 24.8366 24.8366 32 16 32C7.16344 32 0 24.8366 0 16Z" fill="white"/>
<path fill-rule="evenodd" clip-rule="evenodd" d="M24.5332 15.9883C24.5332 16.5654 24.4745 17.1417 24.3591 17.7034C24.2465 18.2518 24.0799 18.7902 23.8615 19.3049C23.6482 19.8105 23.3836 20.2977 23.0744 20.7521C22.7698 21.2036 22.419 21.6271 22.0335 22.0133C21.6473 22.3977 21.2222 22.7476 20.771 23.0535C20.3151 23.3605 19.8272 23.6247 19.3213 23.8391C18.8059 24.0562 18.2662 24.2227 17.7183 24.335C17.1558 24.4507 16.5774 24.5098 15.9995 24.5098C15.4211 24.5098 14.8428 24.4507 14.2811 24.335C13.7323 24.2227 13.1927 24.0562 12.6777 23.8391C12.1718 23.6247 11.6834 23.3605 11.2276 23.0535C10.7763 22.7476 10.3513 22.3977 9.96587 22.0133C9.58003 21.6271 9.22915 21.2036 8.92414 20.7521C8.61663 20.2977 8.35159 19.8105 8.13743 19.3049C7.91906 18.7902 7.75199 18.2518 7.63907 17.7034C7.5249 17.1417 7.46655 16.5654 7.46655 15.9883C7.46655 15.4108 7.52487 14.8332 7.6391 14.2727C7.75203 13.7243 7.91909 13.1851 8.13747 12.6712C8.35163 12.1653 8.61666 11.6776 8.92418 11.2232C9.22919 10.7714 9.58006 10.3486 9.9659 9.96207C10.3513 9.57759 10.7764 9.22852 11.2276 8.92312C11.6835 8.61478 12.1719 8.35059 12.6777 8.13587C13.1927 7.91822 13.7323 7.75139 14.2811 7.63989C14.8428 7.52506 15.4212 7.4668 15.9995 7.4668C16.5775 7.4668 17.1558 7.52506 17.7184 7.63989C18.2663 7.75142 18.8059 7.91825 19.3214 8.13587C19.8272 8.35056 20.3152 8.61478 20.771 8.92312C21.2223 9.22852 21.6473 9.57759 22.0336 9.96207C22.419 10.3486 22.7699 10.7714 23.0745 11.2232C23.3836 11.6776 23.6482 12.1653 23.8615 12.6712C24.0799 13.1851 24.2465 13.7243 24.3591 14.2727C24.4745 14.8332 24.5332 15.4108 24.5332 15.9883ZM12.8901 9.40618C10.8579 10.3645 9.34119 12.2343 8.86824 14.4879C9.06036 14.4895 12.0972 14.5278 15.5961 13.5995C14.3348 11.3618 12.9872 9.53562 12.8901 9.40618ZM16.1999 14.7201C12.4476 15.8418 8.84699 15.7611 8.71783 15.7561C8.71573 15.8343 8.71199 15.91 8.71199 15.9883C8.71199 17.8577 9.41827 19.562 10.5792 20.8507C10.5767 20.8469 12.571 17.3139 16.5036 16.0441C16.5986 16.0124 16.6953 15.9841 16.7912 15.9567C16.6083 15.5431 16.4086 15.1287 16.1999 14.7201ZM20.8122 10.5267C19.5292 9.39701 17.8446 8.71176 15.9995 8.71176C15.4074 8.71176 14.8327 8.78333 14.2823 8.91564C14.3915 9.06212 15.7603 10.8754 17.0066 13.1605C19.7563 12.1312 20.7943 10.5533 20.8122 10.5267ZM17.2879 17.1625C17.2717 17.1679 17.2554 17.1725 17.2396 17.1783C12.9398 18.6751 11.5357 21.6915 11.5205 21.7245C12.7577 22.6852 14.3094 23.2648 15.9995 23.2648C17.0087 23.2648 17.97 23.0596 18.8446 22.6881C18.7367 22.0523 18.3134 19.8238 17.2879 17.1625ZM20.0718 22.0232C21.7081 20.9206 22.8702 19.1697 23.1944 17.1416C23.0444 17.0934 21.0055 16.4489 18.6533 16.8254C19.6092 19.4485 19.9976 21.5847 20.0718 22.0232ZM17.5675 14.2449C17.7367 14.5919 17.9005 14.9451 18.0517 15.3001C18.1055 15.4274 18.158 15.5522 18.2092 15.677C20.7127 15.3625 23.179 15.8917 23.2845 15.9133C23.2678 14.1883 22.6498 12.6051 21.6273 11.3656C21.6136 11.3851 20.4448 13.0715 17.5675 14.2449Z" fill="white"/>
</svg>
