<svg width="20" height="16" viewBox="0 0 20 16" fill="none" xmlns="http://www.w3.org/2000/svg">
<path fill-rule="evenodd" clip-rule="evenodd" d="M2.65067 9.72558C1.27257 9.7295 0.382969 11.2994 1.23197 12.4888C2.44782 14.1921 4.65261 15.5591 8.33346 15.5591C14.0377 15.5591 18.6165 10.9105 17.9755 5.41833L18.9146 3.54017C19.5659 2.23765 18.4342 0.755932 17.0062 1.04153L15.7655 1.28966C15.4366 1.11611 15.0962 0.98514 14.8053 0.890257C14.2383 0.705349 13.552 0.559082 12.9168 0.559082C11.7757 0.559082 10.7909 0.85184 10.0082 1.43902C9.23446 2.01962 8.79863 2.78262 8.55946 3.48329C8.44921 3.80626 8.37579 4.1302 8.32868 4.44111C7.88596 4.30177 7.43453 4.1143 6.99258 3.88537C5.98992 3.36602 5.17912 2.7076 4.72175 2.13034C3.95439 1.16183 2.32819 1.23364 1.75754 2.49259C0.953258 4.26697 1.17388 6.3703 1.89683 8.06983C2.13915 8.63942 2.45436 9.2025 2.83945 9.72433C2.77352 9.72508 2.71046 9.72541 2.65067 9.72558ZM8.33338 13.8924C5.11393 13.8924 3.4492 12.7263 2.58841 11.5205C2.54973 11.4663 2.58873 11.3924 2.65529 11.3922C3.53099 11.3897 5.32849 11.3483 6.51399 10.6545C6.5753 10.6186 6.56181 10.5282 6.49447 10.5056C3.731 9.57641 2.16014 5.64124 3.27546 3.18067C3.30103 3.12425 3.37687 3.11681 3.41534 3.16537C4.6894 4.7734 7.47507 6.34842 9.89871 6.39151C9.95129 6.39242 9.99104 6.34467 9.98304 6.29269C9.88538 5.65952 9.51246 2.22575 12.9167 2.22575C13.7296 2.22575 14.9391 2.62227 15.3846 3.0285C15.4052 3.04727 15.4331 3.0558 15.4605 3.05033L17.333 2.67583C17.401 2.66223 17.4549 2.73279 17.4239 2.79482L16.2625 5.11757C16.2544 5.1337 16.2519 5.15221 16.255 5.16997C17.0684 9.74242 13.3234 13.8924 8.33338 13.8924Z" fill="#777E91"/>
</svg>
