<svg width="20" height="21" viewBox="0 0 20 21" fill="none" xmlns="http://www.w3.org/2000/svg">
<g clip-path="url(#clip0_1717_82687)">
<path fill-rule="evenodd" clip-rule="evenodd" d="M7.49882 8.42571C7.52332 8.8853 7.17061 9.27772 6.71103 9.30223C6.08379 9.33566 5.587 9.37656 5.19878 9.41751C4.67743 9.47249 4.36065 9.79273 4.30799 10.2534C4.23238 10.9148 4.16667 11.9156 4.16667 13.3925C4.16667 14.8694 4.23238 15.8702 4.30799 16.5316C4.36074 16.993 4.67672 17.3124 5.19729 17.3673C6.10898 17.4635 7.61604 17.5592 10 17.5592C12.384 17.5592 13.891 17.4635 14.8027 17.3673C15.3233 17.3124 15.6393 16.993 15.692 16.5316C15.7676 15.8702 15.8333 14.8694 15.8333 13.3925C15.8333 11.9156 15.7676 10.9148 15.692 10.2534C15.6394 9.79273 15.3226 9.47249 14.8012 9.41751C14.413 9.37656 13.9162 9.33566 13.289 9.30223C12.8294 9.27772 12.4767 8.8853 12.5012 8.42571C12.5257 7.96613 12.9181 7.61342 13.3777 7.63792C14.0301 7.6727 14.5558 7.71571 14.976 7.76003C16.213 7.89049 17.1997 8.76807 17.3479 10.0641C17.4323 10.8027 17.5 11.8688 17.5 13.3925C17.5 14.9162 17.4323 15.9823 17.3479 16.7209C17.1998 18.0161 16.2154 18.8942 14.9776 19.0248C13.9933 19.1287 12.4257 19.2258 10 19.2258C7.57435 19.2258 6.00672 19.1287 5.02236 19.0248C3.78459 18.8942 2.80017 18.0161 2.65211 16.7209C2.56767 15.9823 2.5 14.9162 2.5 13.3925C2.5 11.8688 2.56767 10.8027 2.65211 10.0641C2.80026 8.76807 3.78697 7.89049 5.02397 7.76003C5.44422 7.71571 5.96994 7.6727 6.6223 7.63792C7.08189 7.61342 7.47432 7.96613 7.49882 8.42571Z" fill="#777E91"/>
<path fill-rule="evenodd" clip-rule="evenodd" d="M7.67259 5.23159C7.34715 5.55703 6.81951 5.55703 6.49408 5.23159C6.16864 4.90615 6.16864 4.37852 6.49408 4.05308L9.41074 1.13641C9.73618 0.810975 10.2638 0.810975 10.5893 1.13641L13.5059 4.05308C13.8314 4.37852 13.8314 4.90615 13.5059 5.23159C13.1805 5.55703 12.6528 5.55703 12.3274 5.23159L10.8333 3.73751V11.7257C10.8333 12.1859 10.4602 12.559 10 12.559C9.53976 12.559 9.16667 12.1859 9.16667 11.7257V3.73751L7.67259 5.23159Z" fill="#777E91"/>
</g>
<defs>
<clipPath id="clip0_1717_82687">
<rect width="20" height="20" fill="white" transform="translate(0 0.059082)"/>
</clipPath>
</defs>
</svg>
