<svg width="24" height="25" viewBox="0 0 24 25" fill="none" xmlns="http://www.w3.org/2000/svg">
<path fill-rule="evenodd" clip-rule="evenodd" d="M3 5.05908C3 2.84994 4.79086 1.05908 7 1.05908H15.3431C16.404 1.05908 17.4214 1.48051 18.1716 2.23066L19.8284 3.88751C20.5786 4.63766 21 5.65507 21 6.71594V19.0591C21 21.2682 19.2091 23.0591 17 23.0591H7C4.79086 23.0591 3 21.2682 3 19.0591V5.05908ZM19 8.05908V19.0591C19 20.1637 18.1046 21.0591 17 21.0591H7C5.89543 21.0591 5 20.1637 5 19.0591V5.05908C5 3.95451 5.89543 3.05908 7 3.05908H14V5.05908C14 6.71594 15.3431 8.05908 17 8.05908H19ZM18.8891 6.05908C18.7909 5.77668 18.6296 5.51716 18.4142 5.30172L16.7574 3.64487C16.5419 3.42943 16.2824 3.26822 16 3.17002V5.05908C16 5.61137 16.4477 6.05908 17 6.05908H18.8891Z" fill="#777E91"/>
<path d="M11.6172 9.13496C11.4993 9.18376 11.3888 9.2561 11.2929 9.35198L8.29289 12.352C7.90237 12.7425 7.90237 13.3757 8.29289 13.7662C8.68342 14.1567 9.31658 14.1567 9.70711 13.7662L11 12.4733V17.0591C11 17.6114 11.4477 18.0591 12 18.0591C12.5523 18.0591 13 17.6114 13 17.0591V12.4733L14.2929 13.7662C14.6834 14.1567 15.3166 14.1567 15.7071 13.7662C16.0976 13.3757 16.0976 12.7425 15.7071 12.352L12.7071 9.35198C12.4125 9.05733 11.9797 8.98499 11.6172 9.13496Z" fill="#777E91"/>
</svg>
