<svg width="20" height="20" viewBox="0 0 20 20" fill="none" xmlns="http://www.w3.org/2000/svg">
<g clip-path="url(#clip0_1717_79801)">
<path fill-rule="evenodd" clip-rule="evenodd" d="M10 10.8346C6.77834 10.8346 4.16667 13.4463 4.16667 16.668V18.3346C4.16667 18.7949 3.79357 19.168 3.33333 19.168C2.8731 19.168 2.5 18.7949 2.5 18.3346V16.668C2.5 12.5258 5.85786 9.16797 10 9.16797C14.1421 9.16797 17.5 12.5258 17.5 16.668V18.3346C17.5 18.7949 17.1269 19.168 16.6667 19.168C16.2064 19.168 15.8333 18.7949 15.8333 18.3346V16.668C15.8333 13.4463 13.2217 10.8346 10 10.8346Z" fill="#777E91"/>
<path fill-rule="evenodd" clip-rule="evenodd" d="M10 9.16732C11.8409 9.16732 13.3333 7.67493 13.3333 5.83398C13.3333 3.99304 11.8409 2.50065 10 2.50065C8.15905 2.50065 6.66667 3.99304 6.66667 5.83398C6.66667 7.67493 8.15905 9.16732 10 9.16732ZM10 10.834C12.7614 10.834 15 8.59541 15 5.83398C15 3.07256 12.7614 0.833984 10 0.833984C7.23858 0.833984 5 3.07256 5 5.83398C5 8.59541 7.23858 10.834 10 10.834Z" fill="#777E91"/>
</g>
<defs>
<clipPath id="clip0_1717_79801">
<rect width="20" height="20" fill="white" transform="translate(0 0.000976562)"/>
</clipPath>
</defs>
</svg>
