<svg width="16" height="17" viewBox="0 0 16 17" fill="none" xmlns="http://www.w3.org/2000/svg">
<path fill-rule="evenodd" clip-rule="evenodd" d="M8.00016 13.3923C10.9457 13.3923 13.3335 11.0045 13.3335 8.059C13.3335 5.11348 10.9457 2.72567 8.00016 2.72567C5.05464 2.72567 2.66683 5.11348 2.66683 8.059C2.66683 11.0045 5.05464 13.3923 8.00016 13.3923ZM8.00016 14.7257C11.6821 14.7257 14.6668 11.7409 14.6668 8.059C14.6668 4.3771 11.6821 1.39233 8.00016 1.39233C4.31826 1.39233 1.3335 4.3771 1.3335 8.059C1.3335 11.7409 4.31826 14.7257 8.00016 14.7257Z" fill="#777E91"/>
<path fill-rule="evenodd" clip-rule="evenodd" d="M9.16429 12.1768C9.65676 11.1918 9.99984 9.73784 9.99984 8.059C9.99984 6.38016 9.65676 4.92618 9.16429 3.94124C8.63195 2.87655 8.14321 2.72567 7.99984 2.72567C7.85647 2.72567 7.36773 2.87655 6.83538 3.94124C6.34292 4.92618 5.99984 6.38016 5.99984 8.059C5.99984 9.73784 6.34292 11.1918 6.83538 12.1768C7.36773 13.2415 7.85647 13.3923 7.99984 13.3923C8.14321 13.3923 8.63195 13.2415 9.16429 12.1768ZM7.99984 14.7257C9.84079 14.7257 11.3332 11.7409 11.3332 8.059C11.3332 4.3771 9.84079 1.39233 7.99984 1.39233C6.15889 1.39233 4.6665 4.3771 4.6665 8.059C4.6665 11.7409 6.15889 14.7257 7.99984 14.7257Z" fill="#777E91"/>
<path fill-rule="evenodd" clip-rule="evenodd" d="M14.6339 8.72567C14.6557 8.5064 14.6668 8.284 14.6668 8.059C14.6668 7.834 14.6557 7.6116 14.6339 7.39233H1.36641C1.34464 7.6116 1.3335 7.834 1.3335 8.059C1.3335 8.284 1.34464 8.5064 1.36641 8.72567H14.6339Z" fill="#777E91"/>
</svg>
