<svg width="32" height="32" viewBox="0 0 32 32" fill="none" xmlns="http://www.w3.org/2000/svg">
<path opacity="0.1" fill-rule="evenodd" clip-rule="evenodd" d="M0 16C0 7.16344 7.16344 0 16 0C24.8366 0 32 7.16344 32 16C32 24.8366 24.8366 32 16 32C7.16344 32 0 24.8366 0 16Z" fill="white"/>
<path fill-rule="evenodd" clip-rule="evenodd" d="M22.6679 10.5C23.4022 10.7015 23.9805 11.2953 24.1768 12.0493C24.5335 13.4158 24.5335 16.2671 24.5335 16.2671C24.5335 16.2671 24.5335 19.1183 24.1768 20.485C23.9805 21.239 23.4022 21.8327 22.6679 22.0343C21.3371 22.4005 16.0001 22.4005 16.0001 22.4005C16.0001 22.4005 10.6632 22.4005 9.3323 22.0343C8.59795 21.8327 8.01962 21.239 7.82335 20.485C7.4668 19.1183 7.4668 16.2671 7.4668 16.2671C7.4668 16.2671 7.4668 13.4158 7.82335 12.0493C8.01962 11.2953 8.59795 10.7015 9.3323 10.5C10.6632 10.1338 16.0001 10.1338 16.0001 10.1338C16.0001 10.1338 21.3371 10.1338 22.6679 10.5ZM14.4001 13.8671V19.2004L18.6668 16.5338L14.4001 13.8671Z" fill="white"/>
</svg>
