<svg width="32" height="33" viewBox="0 0 32 33" fill="none" xmlns="http://www.w3.org/2000/svg">
<path fill-rule="evenodd" clip-rule="evenodd" d="M16 27.1667C21.891 27.1667 26.6666 22.391 26.6666 16.5C26.6666 10.609 21.891 5.83334 16 5.83334C10.1089 5.83334 5.33329 10.609 5.33329 16.5C5.33329 22.391 10.1089 27.1667 16 27.1667ZM16 29.8333C23.3638 29.8333 29.3333 23.8638 29.3333 16.5C29.3333 9.13621 23.3638 3.16667 16 3.16667C8.63616 3.16667 2.66663 9.13621 2.66663 16.5C2.66663 23.8638 8.63616 29.8333 16 29.8333Z" fill="#EF466F"/>
<path fill-rule="evenodd" clip-rule="evenodd" d="M16 9.83333C15.2636 9.83333 14.6666 10.4303 14.6666 11.1667C14.6666 11.903 15.2636 12.5 16 12.5C16.7363 12.5 17.3333 11.903 17.3333 11.1667C17.3333 10.4303 16.7363 9.83333 16 9.83333ZM16 15.1667C15.2636 15.1667 14.6666 15.7636 14.6666 16.5V21.8333C14.6666 22.5697 15.2636 23.1667 16 23.1667C16.7363 23.1667 17.3333 22.5697 17.3333 21.8333V16.5C17.3333 15.7636 16.7363 15.1667 16 15.1667Z" fill="#EF466F"/>
</svg>
