<svg width="48" height="49" viewBox="0 0 48 49" fill="none" xmlns="http://www.w3.org/2000/svg">
<rect y="0.0585938" width="48" height="48" rx="24" fill="#FCFCFD"/>
<path fill-rule="evenodd" clip-rule="evenodd" d="M17.2929 17.3515C17.6834 16.961 18.3166 16.961 18.7071 17.3515L24 22.6444L29.2929 17.3515C29.6834 16.961 30.3166 16.961 30.7071 17.3515C31.0976 17.742 31.0976 18.3752 30.7071 18.7657L25.4142 24.0586L30.7071 29.3515C31.0976 29.742 31.0976 30.3752 30.7071 30.7657C30.3166 31.1562 29.6834 31.1562 29.2929 30.7657L24 25.4728L18.7071 30.7657C18.3166 31.1562 17.6834 31.1562 17.2929 30.7657C16.9024 30.3752 16.9024 29.742 17.2929 29.3515L22.5858 24.0586L17.2929 18.7657C16.9024 18.3752 16.9024 17.742 17.2929 17.3515Z" fill="#777E91"/>
</svg>
