<svg width="48" height="48" viewBox="0 0 48 48" fill="none" xmlns="http://www.w3.org/2000/svg">
<rect width="48" height="48" rx="24" fill="#353945"/>
<path fill-rule="evenodd" clip-rule="evenodd" d="M15 14C14.4477 14 14 14.4477 14 15C14 15.5523 14.4477 16 15 16H16V30C16 32.2091 17.7909 34 20 34H28C30.2091 34 32 32.2091 32 30V16H33C33.5523 16 34 15.5523 34 15C34 14.4477 33.5523 14 33 14H15ZM30 16H18V30C18 31.1046 18.8954 32 20 32H28C29.1046 32 30 31.1046 30 30V16Z" fill="#777E91"/>
<path d="M24.7071 19.2929C24.3166 18.9024 23.6834 18.9024 23.2929 19.2929L20.2929 22.2929C19.9024 22.6834 19.9024 23.3166 20.2929 23.7071C20.6834 24.0976 21.3166 24.0976 21.7071 23.7071L23 22.4142V28C23 28.5523 23.4477 29 24 29C24.5523 29 25 28.5523 25 28V22.4142L26.2929 23.7071C26.6834 24.0976 27.3166 24.0976 27.7071 23.7071C28.0976 23.3166 28.0976 22.6834 27.7071 22.2929L24.7071 19.2929Z" fill="#777E91"/>
</svg>
