<svg width="48" height="48" viewBox="0 0 48 48" fill="none" xmlns="http://www.w3.org/2000/svg">
<path fill-rule="evenodd" clip-rule="evenodd" d="M24 32C28.4183 32 32 28.4183 32 24C32 19.5817 28.4183 16 24 16C19.5817 16 16 19.5817 16 24C16 28.4183 19.5817 32 24 32ZM24 34C29.5228 34 34 29.5228 34 24C34 18.4771 29.5228 14 24 14C18.4771 14 14 18.4771 14 24C14 29.5228 18.4771 34 24 34Z" fill="#777E91"/>
<path d="M24 22C24 21.4477 24.4477 21 25 21H26C26.5523 21 27 20.5523 27 20C27 19.4477 26.5523 19 26 19H25C23.3431 19 22 20.3432 22 22V24H21C20.4477 24 20 24.4477 20 25C20 25.5523 20.4477 26 21 26H22V32C22 32.5523 22.4477 33 23 33C23.5523 33 24 32.5523 24 32V26H26C26.5523 26 27 25.5523 27 25C27 24.4477 26.5523 24 26 24H24V22Z" fill="#777E91"/>
<rect x="1" y="1" width="46" height="46" rx="23" stroke="#353945" stroke-width="2"/>
</svg>
