<svg width="48" height="48" viewBox="0 0 48 48" fill="none" xmlns="http://www.w3.org/2000/svg">
<path fill-rule="evenodd" clip-rule="evenodd" d="M28 16H20C17.7909 16 16 17.7909 16 20V28C16 30.2091 17.7909 32 20 32H28C30.2091 32 32 30.2091 32 28V20C32 17.7909 30.2091 16 28 16ZM20 14C16.6863 14 14 16.6863 14 20V28C14 31.3137 16.6863 34 20 34H28C31.3137 34 34 31.3137 34 28V20C34 16.6863 31.3137 14 28 14H20Z" fill="#777E91"/>
<path d="M29 20C29.5523 20 30 19.5523 30 19C30 18.4477 29.5523 18 29 18C28.4477 18 28 18.4477 28 19C28 19.5523 28.4477 20 29 20Z" fill="#777E91"/>
<path fill-rule="evenodd" clip-rule="evenodd" d="M29 24C29 26.7614 26.7614 29 24 29C21.2386 29 19 26.7614 19 24C19 21.2386 21.2386 19 24 19C26.7614 19 29 21.2386 29 24ZM27 24C27 25.6569 25.6569 27 24 27C22.3431 27 21 25.6569 21 24C21 22.3431 22.3431 21 24 21C25.6569 21 27 22.3431 27 24Z" fill="#777E91"/>
<rect x="1" y="1" width="46" height="46" rx="23" stroke="#353945" stroke-width="2"/>
</svg>
