<svg width="48" height="49" viewBox="0 0 48 49" fill="none" xmlns="http://www.w3.org/2000/svg">
<path d="M17 22.0586C15.9 22.0586 15 22.9586 15 24.0586C15 25.1586 15.9 26.0586 17 26.0586C18.1 26.0586 19 25.1586 19 24.0586C19 22.9586 18.1 22.0586 17 22.0586ZM31 22.0586C29.9 22.0586 29 22.9586 29 24.0586C29 25.1586 29.9 26.0586 31 26.0586C32.1 26.0586 33 25.1586 33 24.0586C33 22.9586 32.1 22.0586 31 22.0586ZM24 22.0586C22.9 22.0586 22 22.9586 22 24.0586C22 25.1586 22.9 26.0586 24 26.0586C25.1 26.0586 26 25.1586 26 24.0586C26 22.9586 25.1 22.0586 24 22.0586Z" fill="#777E91"/>
<rect x="1" y="1.05859" width="46" height="46" rx="23" stroke="#353945" stroke-width="2"/>
</svg>
