<svg width="48" height="48" viewBox="0 0 48 48" fill="none" xmlns="http://www.w3.org/2000/svg">
<path fill-rule="evenodd" clip-rule="evenodd" d="M24 32C28.4183 32 32 28.4183 32 24C32 19.5817 28.4183 16 24 16C19.5817 16 16 19.5817 16 24C16 28.4183 19.5817 32 24 32ZM24 34C29.5228 34 34 29.5228 34 24C34 18.4771 29.5228 14 24 14C18.4771 14 14 18.4771 14 24C14 29.5228 18.4771 34 24 34Z" fill="#777E91"/>
<path fill-rule="evenodd" clip-rule="evenodd" d="M20.8779 21.8539C20.2973 22.9183 20.2786 24.3212 20.8944 25.5528C21.1414 26.0468 20.9412 26.6474 20.4472 26.8944C19.9532 27.1414 19.3525 26.9412 19.1056 26.4472C18.2214 24.6788 18.2027 22.5817 19.1221 20.8961C20.0643 19.1687 21.921 18 24.5 18C26.457 18 27.9423 18.882 28.8692 20.1696C29.7746 21.4276 30.1239 23.0338 29.9538 24.5192C29.7836 26.0056 29.0762 27.4847 27.7299 28.3746C26.5809 29.134 25.1012 29.3769 23.3753 28.9852L22.4635 32.2676C22.3157 32.7998 21.7645 33.1113 21.2323 32.9635C20.7002 32.8157 20.3887 32.2645 20.5365 31.7324L21.7158 27.4868C21.7175 27.4804 21.7193 27.4739 21.7212 27.4675L23.0365 22.7324C23.1843 22.2002 23.7355 21.8887 24.2677 22.0365C24.7998 22.1843 25.1113 22.7355 24.9635 23.2676L23.9112 27.056C25.1622 27.3211 26.0396 27.0944 26.627 26.7061C27.37 26.215 27.8472 25.3358 27.9668 24.2917C28.0864 23.2467 27.8305 22.1502 27.2459 21.338C26.6827 20.5555 25.7931 20 24.5 20C22.5791 20 21.4357 20.8313 20.8779 21.8539Z" fill="#777E91"/>
<rect x="1" y="1" width="46" height="46" rx="23" stroke="#353945" stroke-width="2"/>
</svg>
