<svg width="48" height="49" viewBox="0 0 48 49" fill="none" xmlns="http://www.w3.org/2000/svg">
<path fill-rule="evenodd" clip-rule="evenodd" d="M20.9986 22.0982C21.028 22.6497 20.6047 23.1206 20.0532 23.15C19.3005 23.1901 18.7044 23.2392 18.2385 23.2883C17.6129 23.3543 17.2328 23.7386 17.1696 24.2914C17.0789 25.085 17 26.2861 17 28.0583C17 29.8305 17.0789 31.0316 17.1696 31.8252C17.2329 32.3789 17.6121 32.7622 18.2368 32.8281C19.3308 32.9436 21.1392 33.0583 24 33.0583C26.8608 33.0583 28.6692 32.9436 29.7632 32.8281C30.3879 32.7622 30.7671 32.3789 30.8304 31.8252C30.9211 31.0316 31 29.8305 31 28.0583C31 26.2861 30.9211 25.085 30.8304 24.2914C30.7672 23.7386 30.3871 23.3543 29.7615 23.2883C29.2956 23.2392 28.6995 23.1901 27.9468 23.15C27.3953 23.1206 26.972 22.6497 27.0014 22.0982C27.0308 21.5467 27.5017 21.1234 28.0532 21.1528C28.8361 21.1945 29.4669 21.2462 29.9712 21.2993C31.4556 21.4559 32.6397 22.509 32.8175 24.0642C32.9188 24.9506 33 26.2298 33 28.0583C33 29.8868 32.9188 31.166 32.8175 32.0524C32.6398 33.6067 31.4585 34.6603 29.9732 34.817C28.7919 34.9417 26.9108 35.0583 24 35.0583C21.0892 35.0583 19.2081 34.9417 18.0268 34.817C16.5415 34.6603 15.3602 33.6067 15.1825 32.0524C15.0812 31.166 15 29.8868 15 28.0583C15 26.2298 15.0812 24.9506 15.1825 24.0642C15.3603 22.509 16.5444 21.4559 18.0288 21.2993C18.5331 21.2462 19.1639 21.1945 19.9468 21.1528C20.4983 21.1234 20.9692 21.5467 20.9986 22.0982Z" fill="#777E91"/>
<path fill-rule="evenodd" clip-rule="evenodd" d="M21.2071 18.2657C20.8166 18.6562 20.1834 18.6562 19.7929 18.2657C19.4024 17.8752 19.4024 17.242 19.7929 16.8515L23.2929 13.3515C23.6834 12.961 24.3166 12.961 24.7071 13.3515L28.2071 16.8515C28.5976 17.242 28.5976 17.8752 28.2071 18.2657C27.8166 18.6562 27.1834 18.6562 26.7929 18.2657L25 16.4728V26.0586C25 26.6109 24.5523 27.0586 24 27.0586C23.4477 27.0586 23 26.6109 23 26.0586V16.4728L21.2071 18.2657Z" fill="#777E91"/>
<rect x="1" y="1.05859" width="46" height="46" rx="23" stroke="#353945" stroke-width="2"/>
</svg>
