<svg width="48" height="48" viewBox="0 0 48 48" fill="none" xmlns="http://www.w3.org/2000/svg">
<path fill-rule="evenodd" clip-rule="evenodd" d="M15.1808 25.9998C13.527 26.0045 12.4595 27.8884 13.4783 29.3157C14.9373 31.3596 17.5831 33 22.0001 33C28.8452 33 34.3398 27.4217 33.5706 20.8311L34.6975 18.5773C35.479 17.0143 34.121 15.2362 32.4074 15.5789L30.9186 15.8767C30.5239 15.6684 30.1154 15.5113 29.7663 15.3974C29.0859 15.1755 28.2624 15 27.5001 15C26.1308 15 24.949 15.3513 24.0098 16.0559C23.0813 16.7526 22.5583 17.6682 22.2713 18.509C22.139 18.8966 22.0509 19.2853 21.9944 19.6584C21.4631 19.4912 20.9214 19.2663 20.3911 18.9915C19.1879 18.3683 18.2149 17.5782 17.6661 16.8855C16.7452 15.7233 14.7938 15.8095 14.109 17.3202C13.1439 19.4495 13.4086 21.9735 14.2762 24.0129C14.5669 24.6964 14.9452 25.3721 15.4073 25.9983C15.3282 25.9992 15.2525 25.9996 15.1808 25.9998ZM22 31C18.1367 31 16.139 29.6007 15.106 28.1537C15.0596 28.0887 15.1064 28 15.1863 27.9998C16.2371 27.9968 18.3941 27.9471 19.8167 27.1145C19.8903 27.0714 19.8741 26.9629 19.7933 26.9358C16.4772 25.8208 14.5921 21.0986 15.9305 18.1459C15.9612 18.0782 16.0522 18.0693 16.0984 18.1275C17.6272 20.0572 20.97 21.9472 23.8784 21.9989C23.9415 22 23.9892 21.9427 23.9796 21.8803C23.8624 21.1205 23.4149 17 27.5 17C28.4755 17 29.9269 17.4758 30.4615 17.9633C30.4862 17.9858 30.5197 17.9961 30.5525 17.9895L32.7995 17.5401C32.8811 17.5238 32.9458 17.6084 32.9086 17.6829L31.5149 20.4702C31.5052 20.4895 31.5022 20.5118 31.5059 20.5331C32.482 26.02 27.988 31 22 31Z" fill="#777E91"/>
<rect x="1" y="1" width="46" height="46" rx="23" stroke="#353945" stroke-width="2"/>
</svg>
